<svg width="70" height="70" viewBox="0 0 70 70" fill="none" xmlns="http://www.w3.org/2000/svg">
<circle cx="35" cy="35" r="35" fill="white"/>
<path d="M37.8125 20.75V22.625C39.668 22.625 41.4062 23.0938 43.0273 24.0312C44.5703 24.9492 45.8008 26.1797 46.7188 27.7227C47.6562 29.3438 48.125 31.082 48.125 32.9375H50C50 30.7305 49.4434 28.6797 48.3301 26.7852C47.2559 24.9492 45.8008 23.4941 43.9648 22.4199C42.0703 21.3066 40.0195 20.75 37.8125 20.75ZM28.1152 23.5625C27.5879 23.5625 27.1289 23.7285 26.7383 24.0605L23.7207 27.1367L23.8086 27.0781C23.3203 27.4883 22.998 27.9961 22.8418 28.6016C22.7051 29.207 22.7441 29.793 22.959 30.3594C23.5059 31.8828 24.2383 33.4453 25.1562 35.0469C26.4453 37.2539 27.9785 39.2363 29.7559 40.9941C32.6074 43.8652 36.1523 46.1309 40.3906 47.791H40.4199C40.9863 47.9863 41.5527 48.0254 42.1191 47.9082C42.7051 47.791 43.2227 47.5371 43.6719 47.1465L46.6309 44.1875C47.0215 43.7969 47.2168 43.3184 47.2168 42.752C47.2168 42.166 47.0215 41.6777 46.6309 41.2871L42.793 37.4199C42.4023 37.0293 41.9141 36.834 41.3281 36.834C40.7422 36.834 40.2539 37.0293 39.8633 37.4199L38.0176 39.2949C36.5332 38.5918 35.2441 37.7227 34.1504 36.6875C33.0566 35.6328 32.1875 34.3535 31.543 32.8496L33.418 30.9746C33.8281 30.5449 34.0332 30.0371 34.0332 29.4512C34.0332 28.8457 33.7988 28.3574 33.3301 27.9863L33.418 28.0742L29.4922 24.0605C29.1016 23.7285 28.6426 23.5625 28.1152 23.5625ZM37.8125 24.5V26.375C39.0039 26.375 40.0977 26.668 41.0938 27.2539C42.1094 27.8398 42.9102 28.6406 43.4961 29.6562C44.082 30.6523 44.375 31.7461 44.375 32.9375H46.25C46.25 31.4141 45.8691 29.998 45.1074 28.6895C44.3457 27.4199 43.3301 26.4043 42.0605 25.6426C40.752 24.8809 39.3359 24.5 37.8125 24.5ZM28.1152 25.4375C28.1738 25.4375 28.2422 25.4668 28.3203 25.5254L32.1582 29.4512C32.1777 29.5293 32.1582 29.5977 32.0996 29.6562L29.3164 32.4102L29.5215 32.9961L29.9023 33.8164C30.2148 34.4805 30.5762 35.125 30.9863 35.75C31.5527 36.6289 32.1777 37.3809 32.8613 38.0059C33.7793 38.9043 34.8828 39.7246 36.1719 40.4668C36.8164 40.8379 37.3633 41.1113 37.8125 41.2871L38.3984 41.5508L41.2402 38.709C41.2793 38.6699 41.3086 38.6504 41.3281 38.6504C41.3477 38.6504 41.377 38.6699 41.416 38.709L45.3711 42.6641C45.4102 42.7031 45.4297 42.7324 45.4297 42.752C45.4297 42.752 45.4102 42.7715 45.3711 42.8105L42.4414 45.7109C42.0117 46.082 41.543 46.1797 41.0352 46.0039C37.0508 44.4609 33.7305 42.3516 31.0742 39.6758C29.4336 38.0352 27.998 36.1699 26.7676 34.0801C25.8887 32.5762 25.2051 31.1211 24.7168 29.7148V29.6855C24.6387 29.5098 24.6289 29.3047 24.6875 29.0703C24.7461 28.8164 24.8535 28.6211 25.0098 28.4844L27.9102 25.5254C27.9688 25.4668 28.0371 25.4375 28.1152 25.4375ZM37.8125 28.25V30.125C38.5938 30.125 39.2578 30.3984 39.8047 30.9453C40.3516 31.4922 40.625 32.1562 40.625 32.9375H42.5C42.5 32.0977 42.2852 31.3164 41.8555 30.5938C41.4453 29.8711 40.8789 29.3047 40.1562 28.8945C39.4336 28.4648 38.6523 28.25 37.8125 28.25Z" fill="#FE8C12"/>
</svg>
