<svg width="70" height="70" viewBox="0 0 70 70" fill="none" xmlns="http://www.w3.org/2000/svg">
<circle cx="35" cy="35" r="35" fill="white"/>
<path d="M47.7852 33.2277L44.7 30.1424V23.7324C44.7 23.3279 44.372 23 43.9675 23H27.0323C26.6278 23 26.2998 23.3279 26.2998 23.7324V30.1424C22.9262 33.5162 23.0001 33.3411 23.0001 33.7456V47.2676C23.0001 47.6721 23.3281 48 23.7326 48H47.2673C47.6718 48 47.9997 47.6721 47.9997 47.2676C47.9997 47.1693 48.0014 33.7371 47.9967 33.6828C47.9814 33.5038 47.9005 33.3431 47.7852 33.2277ZM46.1355 33.6496L44.7 34.666V32.214L46.1355 33.6496ZM43.2351 24.4648V35.7031L38.1616 39.2953C36.7066 40.3254 34.7357 40.3483 33.2594 39.3498C33.0727 39.2226 28.1043 35.8378 27.7647 35.6064V24.4648H43.2351ZM26.2999 34.6085L24.8757 33.6382L26.2999 32.2141V34.6085ZM46.5349 46.5352H24.4649V35.1308C24.7452 35.3218 30.994 39.5789 31.3007 39.7878L27.2969 43.7918C27.0108 44.0777 27.0108 44.5415 27.2969 44.8275C27.5829 45.1136 28.0466 45.1136 28.3326 44.8275L32.5347 40.6254C34.3925 41.8288 36.848 41.8948 38.8064 40.627L43.0068 44.8275C43.2928 45.1135 43.7566 45.1136 44.0426 44.8275C44.3287 44.5416 44.3287 44.0778 44.0426 43.7918L40.0231 39.7721C40.2604 39.6041 46.2265 35.38 46.5349 35.1616V46.5352Z" fill="#FF7210"/>
<path d="M30.4492 27.8828H40.5486C40.9531 27.8828 41.281 27.5549 41.281 27.1504C41.281 26.7459 40.9531 26.418 40.5486 26.418H30.4492C30.0447 26.418 29.7168 26.7459 29.7168 27.1504C29.7168 27.5549 30.0447 27.8828 30.4492 27.8828Z" fill="#FF7210"/>
<path d="M30.4492 31.3008H40.5486C40.9531 31.3008 41.281 30.9729 41.281 30.5684C41.281 30.1639 40.9531 29.8359 40.5486 29.8359H30.4492C30.0447 29.8359 29.7168 30.1639 29.7168 30.5684C29.7168 30.9729 30.0447 31.3008 30.4492 31.3008Z" fill="#FF7210"/>
<path d="M30.4492 34.7188H40.5486C40.9531 34.7188 41.281 34.3908 41.281 33.9863C41.281 33.5818 40.9531 33.2539 40.5486 33.2539H30.4492C30.0447 33.2539 29.7168 33.5818 29.7168 33.9863C29.7168 34.3908 30.0447 34.7188 30.4492 34.7188Z" fill="#FF7210"/>
</svg>
