<svg width="230" height="50" viewBox="0 0 230 50" fill="none" xmlns="http://www.w3.org/2000/svg">
<circle cx="205" cy="25" r="25" fill="white"/>
<path d="M200.41 18C199.954 18 199.564 18.1628 199.238 18.4883C198.913 18.8008 198.75 19.1914 198.75 19.6602C198.75 20.1159 198.913 20.5065 199.238 20.832C199.564 21.1576 199.948 21.3203 200.391 21.3203C200.846 21.3203 201.237 21.1576 201.562 20.832C201.888 20.5065 202.051 20.1159 202.051 19.6602C202.051 19.2044 201.888 18.8138 201.562 18.4883C201.25 18.1628 200.866 18 200.41 18ZM208.457 22.375C207.819 22.375 207.266 22.5247 206.797 22.8242C206.419 23.0716 206.12 23.4036 205.898 23.8203H205.859V22.5703H203.125V31.75H205.977V27.1992C205.977 26.7044 206.003 26.3268 206.055 26.0664C206.133 25.6758 206.276 25.3828 206.484 25.1875C206.732 24.9661 207.083 24.8555 207.539 24.8555C207.995 24.8555 208.34 24.9857 208.574 25.2461C208.77 25.4544 208.9 25.7669 208.965 26.1836C209.004 26.431 209.023 26.7956 209.023 27.2773V31.75H211.875V26.7109C211.875 25.7865 211.79 25.0443 211.621 24.4844C211.426 23.8073 211.094 23.293 210.625 22.9414C210.104 22.5638 209.382 22.375 208.457 22.375ZM198.984 22.5703V31.75H201.836V22.5703H198.984Z" fill="#0A0A0B"/>
<circle cx="145" cy="25" r="25" fill="white"/>
<path d="M142.168 18.625C141.439 18.625 140.762 18.8073 140.137 19.1719C139.525 19.5365 139.036 20.0312 138.672 20.6562C138.307 21.2682 138.125 21.9388 138.125 22.668V28.332C138.125 29.0612 138.307 29.7383 138.672 30.3633C139.036 30.9753 139.525 31.4635 140.137 31.8281C140.762 32.1927 141.439 32.375 142.168 32.375H147.832C148.561 32.375 149.232 32.1927 149.844 31.8281C150.469 31.4635 150.964 30.9753 151.328 30.3633C151.693 29.7383 151.875 29.0612 151.875 28.332V22.668C151.875 21.9388 151.693 21.2682 151.328 20.6562C150.964 20.0312 150.469 19.5365 149.844 19.1719C149.232 18.8073 148.561 18.625 147.832 18.625H142.168ZM142.168 19.875H147.832C148.34 19.875 148.809 19.9987 149.238 20.2461C149.668 20.4935 150.007 20.832 150.254 21.2617C150.501 21.6914 150.625 22.1602 150.625 22.668V28.332C150.625 28.8398 150.501 29.3086 150.254 29.7383C150.007 30.168 149.668 30.5065 149.238 30.7539C148.809 31.0013 148.34 31.125 147.832 31.125H142.168C141.66 31.125 141.191 31.0013 140.762 30.7539C140.332 30.5065 139.993 30.168 139.746 29.7383C139.499 29.3086 139.375 28.8398 139.375 28.332V22.668C139.375 22.1602 139.499 21.6914 139.746 21.2617C139.993 20.832 140.332 20.4935 140.762 20.2461C141.191 19.9987 141.66 19.875 142.168 19.875ZM148.691 21.2422C148.535 21.2422 148.398 21.3008 148.281 21.418C148.177 21.5221 148.125 21.6523 148.125 21.8086C148.125 21.9648 148.177 22.1016 148.281 22.2188C148.398 22.3229 148.535 22.375 148.691 22.375C148.848 22.375 148.978 22.3229 149.082 22.2188C149.199 22.1016 149.258 21.9648 149.258 21.8086C149.258 21.6523 149.199 21.5221 149.082 21.418C148.978 21.3008 148.848 21.2422 148.691 21.2422ZM145 21.75C144.323 21.75 143.698 21.9193 143.125 22.2578C142.552 22.5964 142.096 23.0521 141.758 23.625C141.419 24.1979 141.25 24.8229 141.25 25.5C141.25 26.1771 141.419 26.8021 141.758 27.375C142.096 27.9479 142.552 28.4036 143.125 28.7422C143.698 29.0807 144.323 29.25 145 29.25C145.677 29.25 146.302 29.0807 146.875 28.7422C147.448 28.4036 147.904 27.9479 148.242 27.375C148.581 26.8021 148.75 26.1771 148.75 25.5C148.75 24.8229 148.581 24.1979 148.242 23.625C147.904 23.0521 147.448 22.5964 146.875 22.2578C146.302 21.9193 145.677 21.75 145 21.75ZM145 23C145.456 23 145.872 23.1107 146.25 23.332C146.641 23.5534 146.947 23.8594 147.168 24.25C147.389 24.6276 147.5 25.0443 147.5 25.5C147.5 25.9557 147.389 26.3789 147.168 26.7695C146.947 27.1471 146.641 27.4466 146.25 27.668C145.872 27.8893 145.456 28 145 28C144.544 28 144.121 27.8893 143.73 27.668C143.353 27.4466 143.053 27.1471 142.832 26.7695C142.611 26.3789 142.5 25.9557 142.5 25.5C142.5 25.0443 142.611 24.6276 142.832 24.25C143.053 23.8594 143.353 23.5534 143.73 23.332C144.121 23.1107 144.544 23 145 23Z" fill="#0A0A0B"/>
<circle cx="85" cy="25" r="25" fill="white"/>
<path d="M92.5 20.8516C91.9401 21.099 91.3542 21.2617 90.7422 21.3398C91.0547 21.1445 91.3281 20.9036 91.5625 20.6172C91.7969 20.3177 91.9727 19.9857 92.0898 19.6211C91.4779 19.9857 90.8268 20.2396 90.1367 20.3828C89.8503 20.0703 89.5117 19.8294 89.1211 19.6602C88.7305 19.4909 88.3203 19.4062 87.8906 19.4062C87.3307 19.4062 86.8164 19.543 86.3477 19.8164C85.8789 20.0898 85.5013 20.4674 85.2148 20.9492C84.9414 21.418 84.8047 21.9258 84.8047 22.4727C84.8047 22.7201 84.8307 22.9544 84.8828 23.1758C83.6328 23.1237 82.4479 22.8047 81.3281 22.2188C80.2474 21.6719 79.3164 20.9232 78.5352 19.9727C78.2617 20.4414 78.125 20.9557 78.125 21.5156C78.125 22.0365 78.2487 22.5247 78.4961 22.9805C78.7435 23.4362 79.0755 23.8008 79.4922 24.0742C78.9974 24.0612 78.5352 23.931 78.1055 23.6836V23.7227C78.1055 24.4648 78.3398 25.1224 78.8086 25.6953C79.2773 26.2552 79.8633 26.6068 80.5664 26.75C80.306 26.8151 80.0391 26.8477 79.7656 26.8477C79.5703 26.8477 79.375 26.8346 79.1797 26.8086C79.375 27.4206 79.7331 27.9284 80.2539 28.332C80.7878 28.7227 81.3867 28.9245 82.0508 28.9375C81.5169 29.3542 80.9245 29.6797 80.2734 29.9141C79.6224 30.1484 78.9453 30.2656 78.2422 30.2656C77.9948 30.2526 77.7474 30.2331 77.5 30.207C78.1901 30.6497 78.9323 30.9883 79.7266 31.2227C80.5339 31.4701 81.3607 31.5938 82.207 31.5938C83.5742 31.5938 84.8307 31.3268 85.9766 30.793C87.0182 30.3112 87.9297 29.6276 88.7109 28.7422C89.4401 27.9219 90.0065 26.9844 90.4102 25.9297C90.7878 24.901 90.9766 23.8724 90.9766 22.8438L90.957 22.4336C91.569 22.0039 92.0833 21.4766 92.5 20.8516Z" fill="#0A0A0B"/>
<circle cx="25" cy="25" r="25" fill="white"/>
<path d="M27.0312 16.75C25.7682 16.75 24.8112 17.0885 24.1602 17.7656C23.4701 18.4818 23.125 19.5625 23.125 21.0078V23.625H20V26.75H23.125V34.25H26.25V26.75H28.75L29.375 23.625H26.25V21.5352C26.25 20.9622 26.3542 20.5456 26.5625 20.2852C26.7839 20.0117 27.1484 19.875 27.6562 19.875H29.375V16.8867C28.737 16.7956 27.9557 16.75 27.0312 16.75Z" fill="#0A0A0B"/>
</svg>
